# xmcd
#
# Track frame offsets:
#	182
#	13940
#	28610
#	40557
#	52645
#	65937
#	78972
#	93445
#	106800
#	121180
#	135592
#	149477
#	163282
#	177455
#	189457
#	199657
#	212667
#	224877
#	239815
#	252792
#	266727
#	280507
#	293802
#	307182
#
# Disc length: 4292 seconds
#
# Revision: 3
# Processed by: cddbd v1.5.2PL0 Copyright (c) Steve Scherf et al.
# Submitted via: EasyCDDAExtractor 11.1.0.1
#
DISCID=6f10c218
DTITLE=Billie Holiday - Fine And Mellow 1935-1941
DYEAR=1995
DGENRE=Blues
TTITLE0=What A Little Moonlight Can Do
TTITLE1=I Cried For You
TTITLE2=No Regets
TTITLE3=Billie's Blues
TTITLE4=Summertime
TTITLE5=He Ain't Got Rhythm
TTITLE6=This Year's Kisse
TTITLE7=I Must Have That Man
TTITLE8=My Last Affair
TTITLE9=Mean To Me
TTITLE10=Foolin Myself
TTITLE11=Easy Living
TTITLE12=I'll Never Be The Same
TTITLE13=Me, Myself And I
TTITLE14=Trav'lin' All Alone
TTITLE15=When You're Smiling
TTITLE16=Back In Your Own Back Yard
TTITLE17=Fine And Mellow
TTITLE18=Them There Eyes
TTITLE19=The Man I Love
TTITLE20=All Of Me
TTITLE21=God Bless The Child
TTITLE22=I Cover The Waterfront
TTITLE23=Strange Fruit
EXTD=martin
EXTT0=
EXTT1=
EXTT2=
EXTT3=
EXTT4=
EXTT5=
EXTT6=
EXTT7=
EXTT8=
EXTT9=
EXTT10=
EXTT11=
EXTT12=
EXTT13=
EXTT14=
EXTT15=
EXTT16=
EXTT17=
EXTT18=
EXTT19=
EXTT20=
EXTT21=
EXTT22=
EXTT23=
PLAYORDER=
